<?xml version="1.0" encoding="utf-8"?>
<!-- Generator: Adobe Illustrator 19.2.1, SVG Export Plug-In . SVG Version: 6.00 Build 0)  -->
<svg width="300px" height="300px" version="1.1" id="Calque_1" xmlns="http://www.w3.org/2000/svg" xmlns:xlink="http://www.w3.org/1999/xlink" x="0px" y="0px"
	 viewBox="0 0 432 432" style="enable-background:new 0 0 432 432;" xml:space="preserve">
<style type="text/css">
	.st0{fill:#534741;}
	.st1{fill:#8F7A25;}
	.st2{fill:#998675;}
	.st3{fill:#736357;}
	.st4{fill:#574A16;}
	.st5{fill:#803301;}
	.st6{fill:#B84A01;}
	.st7{fill:#D6B238;}
	.st8{fill:#CA9562;}
	.st9{fill:#913A01;}
	.st10{fill:#CCCCCC;}
	.st11{fill:#D14E1F;}
	.st12{fill:#E0861B;}
	.st13{fill:#301C0F;}
	.st14{fill:#687A00;}
</style>
<g>
	<path class="st2" d="M227.4,206.3c0.8,0.8,1.7,1.5,2.9,1.8c0.7,0.2,1.5,0.2,1.9-0.5c0.4-0.8,0-1.3-0.6-1.8c-0.3-0.3-0.7-0.5-1-0.8
		c-4.6-3.9-8-8.7-9.6-14.6c-1.2-4.3-1.6-8.7-0.6-13.1c0.9-3.7,3.1-6.3,6.5-7.8c0.7,0.5,0.6,1.1,0.8,1.6c1.1,3.1,3.1,5.6,5.9,7.4
		c2,1.2,4,1.4,6,0c1.8-1.2,2.5-3.5,1.9-5.9c-1-3.9-4.8-7.1-8.8-7.3c-0.8,0-1.5,0-2.3,0c0.7-2,1.1-2.4,3.3-4.6
		c2.2-2.1,4.2-4.3,5.7-6.9c3.1-5.4,2.5-11.8-1.5-16.6c-1.9-2.2-4.2-3.4-7.1-3.3c-1.5,0-2.8,0.5-3.7,1.8c-1.6,2.1-0.5,5,2.1,5.5
		c2.1,0.5,3.5-0.8,3.9-3.4c1.2,0.2,1.9,0.8,2.5,1.5c2.6,3,3.6,6.5,2.5,10.3c-0.7,2.6-2.1,4.8-3.9,6.8c-1.1,1.3-2.3,2.5-3.4,3.8
		c-1.1,1.3-2.2,2.6-2.7,4.3c-0.3,1-0.9,1.5-1.9,1.9c-4.4,2-7.1,5.4-8.3,10c-0.9,3.3-0.8,6.6-0.4,10
		C218.2,194.3,221.5,200.9,227.4,206.3z M237.4,172.3c0.4,0.6,0.7,1.3,0.7,2c0.2,1.6-0.9,2.6-2.5,2.3c-0.5-0.1-0.9-0.3-1.4-0.6
		c-2.3-1.3-4.2-4.2-4.8-7.1C233,168.3,235.7,169.5,237.4,172.3z"/>
	<path class="st2" d="M202.3,190.8c-1.7,1.1-3.4,2.3-4.9,3.7c-4.4,4.3-5.6,10.6-3,16.1c0.4,0.9,0.9,1.8,1.7,2.4
		c0.5,0.4,1.2,0.7,1.7,0.1c0.6-0.6,0.1-1-0.3-1.5c-0.1-0.1-0.2-0.2-0.3-0.3c-3-5.1-2.5-11.5,2.5-15.6c1.4-1.2,3-2.1,4.6-3.1
		c1.7-1.1,3.4-2.3,4.8-3.9c2.4-2.6,3.2-5.7,2.4-9.1c-0.9-4.1-3.1-7.5-6.5-10c-1.2-0.9-2.5-1.6-4-1.9c-2.7-0.7-4.9,0.1-6.6,2.3
		c-1.9,2.5-1.2,5.6,1.8,6.9c0.5,0.2,0.9,0.3,1.4,0.6c1.3,0.6,1.6,0.4,3-1.5c0.8-1.1,0.7-2.4-0.1-3.1c-0.6-0.5-1.3-0.7-2-0.3
		c-0.5,0.3-1,0.8-1.6,1.3c-0.6-1.8,0.3-3.2,2.1-3.4c1.2-0.1,2.4,0.2,3.5,0.8c3.7,1.9,5.8,5,6.6,9c0.6,3-0.3,5.5-2.6,7.5
		C205.3,188.8,203.8,189.8,202.3,190.8z"/>
	<path class="st2" d="M242.1,212.9c0.2,1,0.5,1.9,1.3,2.6c0.4,0.4,0.9,0.7,1.5,0.3c0.6-0.4,0.6-0.9,0.4-1.5
		c-0.9-2.5-1.1-5.1-1.1-7.8c0.1-1.3,0.1-2.7,0.2-4c0.2-1.3,0.4-2.7,0.7-4c0.5-2.1,1.3-4.1,2.7-5.8c1.7-2.1,4.1-2.6,6.5-1.3
		c2.1,1.1,3.5,2.9,4.4,5.1c0.7,1.6,0.6,1.7-0.8,2.9c-1.1,1-1.2,2.8-0.3,3.9c0.9,1.1,2.3,1.1,3.6,0c0.8-0.7,1.3-1.7,1.5-2.8
		c1-4.2-1-8.8-5.1-11.6c-4.3-2.9-9.2-2.1-12.2,2.1c-1.1,1.6-1.9,3.3-2.5,5.2C241.3,201.8,240.8,207.3,242.1,212.9z"/>
	<path class="st2" d="M237.8,189.5c0.7-0.7,0.7-2.3,0.1-3.2c-0.6-0.9-1.7-1.4-2.8-1.1c-1.8,0.5-3.2,1.9-3.4,3.9
		c-0.3,3.1,0.4,6.1,1.7,8.9c0.2,0.5,0.5,0.9,0.9,1.2c0.4,0.3,0.9,0.4,1.4,0.1c0.4-0.3,0.4-0.7,0.3-1.2c-0.2-0.8-0.5-1.6-0.7-2.4
		c-0.5-2.1-1.1-4.2-0.7-6.7C236.5,190.3,237.1,190.3,237.8,189.5z"/>
	<path class="st2" d="M210.4,208.7c-0.1,0.5,0,1,0.5,1.3c0.6,0.2,1-0.2,1.2-0.6c0.8-1.5,1.4-3,1.4-4.6c0-2-0.9-3.4-2.1-4.9
		c-1-1.2-2-1.4-3.4-1.1c-1.2,0.2-1.9,1.1-1.7,2.1c0.2,0.9,1.1,1.6,2.3,1.5c1.5,0,1.8,0.1,2.2,1.5c0.3,1.1,0.2,2.3-0.1,3.4
		C210.6,207.7,210.5,208.2,210.4,208.7z"/>
	<path class="st0" d="M270.2,240c-0.9-1.9-2-3.6-3.5-5.1c-2.2-2.1-4.5-2.4-7.2-1c-1.6,0.8-3.2,1.8-5,3.2c0-0.1-0.9-9.7-2.7-11.9
		c-1.1-1.2-2.2-2.4-3.6-3.4c-4.4-3.1-9.1-5.3-14.3-6.6c-8.3-2.1-16.6-2.3-25-1.1c-7.5,1.1-14.6,3.2-21.2,6.8
		c-10.9,6-9.3,9.9-9.9,20.7c-0.4,7.6,0,15.2,1,22.8c1.4,10.5,7.2,17,17.2,20.2c4.2,1.3,8.4,2,12.8,2.6c8.5,1,16.9,0.7,25.4,0.3
		c2.2-0.1,4.4-0.4,6.6-0.7c3.9-0.6,6.9-2.6,8.7-6.2c0.9-1.8,1.6-3.6,2.1-5.6c0.4-1.3,0.7-2.7,1.2-4.4c1,1.3,1.7,2.3,2.5,3.3
		c4.2,5.2,10.3,4.1,13.9,0.2c1.3-1.4,2.2-3,2.8-4.8C275.3,259.4,274.7,249.6,270.2,240z M248.9,231.4c-6.4,4.6-13.4,7.4-21.4,7.5
		c-6,0.1-11.8-0.7-17.6-1.6c-5.6-0.8-11-2.2-16.2-4.5c-3.3-1.4-6.4-3.1-9.5-5.2c1.3-1.6,2.7-2.7,4.3-3.6c5.9-3.2,12.1-5.3,18.8-6.2
		c3-0.4,5.9-0.8,8.9-1.1c4.3-0.4,8.5,0.1,12.8,0.7c5.9,0.9,11.5,2.7,16.6,5.9c1.5,0.9,2.8,2,4,3.2
		C251.2,228.5,251.1,229.9,248.9,231.4z M266.5,270.3c-0.3,1.3-0.8,2.4-1.8,3.3c-1.3,1.1-2.7,1.4-4.3,0.7c-2-0.9-3.5-2.2-4.6-4
		c-0.7-1.2-2.2-2-2.4-3.4c-0.2-1.3,0.3-2.7,0.4-4c0.8-6.9,1.4-13.7,1-20.7c-0.1-1.1,0.3-1.7,1.2-2.2c1.2-0.6,2.3-1.4,3.5-2
		c1.6-0.8,2-0.6,2.7,1.1c1.2,2.9,2.1,5.9,2.8,9c1.2,5.2,1.9,10.5,2,15C267,266.1,267,268.2,266.5,270.3z"/>
	<path class="st3" d="M238.2,224.6c-0.9-0.8-1.9-1.5-3-2c-4.7-2.5-9.8-3.5-15.1-3.2c-5.3,0.3-10.6,1.2-15.8,2.4
		c-2.9,0.7-5.8,1.6-8.4,3c-1.9,1-2.1,2.5-0.8,4.1c0.6,0.7,1.4,1.3,2.1,1.7c2.5,1.6,5.2,2.7,8,3.4c5.1,1.4,10.4,1.8,16.2,1.9
		c2.6,0,5.8-0.1,8.9-0.5c2.6-0.4,5-1.1,7.2-2.5C241,230.7,241.3,227.4,238.2,224.6z"/>
</g>
<path class="st0" d="M323.1,297.4c-4-3.1-9-4.6-13.8-1.3c-2.2,1.6-4.2,3.5-5.4,6c-0.2,0.4-0.4,0.9-0.9,1.1c-1.3,0.4-2.5,0.8-4.2,0.6
	c1.4-2,2.6-3.8,3.8-5.6c0.3-0.4,0.6-0.5,1.1-0.6c4.8-1.6,8-4.9,10.1-9.3c1.3-2.7,2.2-5.6,2.3-8.6c0.1-2.3-0.7-3-3-2.4
	c-0.8,0.2-1.5,0.5-2.2,0.7c-6.1,1.8-8.9,6.2-9.3,12.4c0,0.9-0.1,1.7-0.1,2.7c-3.5-1.1-6.7-0.1-10.1,1c-0.3-1.8,0.1-3.5-0.5-5.1
	c-0.2-0.7-0.4-1.5-0.7-2.2c-0.7-1.6-1.5-1.7-2.8-0.6c-1.1,1-2,2.2-2.7,3.5c-0.4,0-0.6-0.2-0.6-0.5c-0.5-2.2-2-3.4-4-4
	c-1.4-0.5-2.7-0.8-4.2-0.8c-0.7,0-1.2,0.2-1.6,0.9c-1.5,3.1-0.7,9.1,1.6,11.8c1.1,1.2,2.4,2.3,4.2,2.4c0.9,0.1,1.2,0.5,1.6,1.2
	c1,2.1,1.1,4.3,0.6,6.4c-0.8,3.9-1.7,7.8-2.6,11.7c-0.6,2.8-1.9,5.2-4.4,6.8c-2,1.3-4,2.8-5.9,4.1c-0.6-0.5-0.2-0.9-0.1-1.2
	c0.8-2.4,1.2-4.8,1.3-7.3c0-0.9,0.3-1.6,0.9-2.3c1.2-1.5,2.4-3,4.5-3.3c1.3-0.2,2.2-1.2,2.9-2.3c1.3-2,1.9-4.1,2.1-6.4
	c0.1-1.6-0.3-1.9-1.8-1.8c-3.4,0.3-5.8,2.5-6.3,5.9c-0.1,0.6-0.2,1.1-0.2,1.7c-0.1,2.5-0.1,2.5-1.8,4.3c-0.5-0.6-0.5-1.2-0.1-1.9
	c1-1.7,1.6-3.6,2-5.6c0.5-3.1-0.8-5.8-3.5-7.2c-1.1-0.6-1.6-0.5-2.4,0.5c-0.9,1-1.1,2.3-1.2,3.6c0,1.3,0,2.6,0,4.3
	c-1.4-1.2-2.6-2.1-3.9-2.7c-1.6-0.7-2.6-0.2-2.6,1.5c-0.1,2.4,0.3,4.8,1.6,7c0.8,1.3,2.1,1.9,3.5,2.4c-2.9,0.5-5.7,1-7.8,3.3
	c-0.3-0.8-0.1-1.3,0-1.9c0.5-3.2-0.2-6.1-2.1-8.7c-1-1.4-2-1.4-3,0c-1.4,1.9-2,4.1-2.4,6.3c-0.1,0.8-0.2,1.5-0.3,2.7
	c-1.4-1.9-3.1-3.2-5.2-3.7c-2.5-0.7-3.5-0.1-3.8,2.4c-0.6,4.9,1.3,8.8,7,10c0.8,0.2,1.9-0.1,2.3,1.1c0.4,1.5,1.9,2.8,0.9,4.6
	c-0.4,0.7-0.7,1.6-1,2.3c-1.4,2.9-3.4,5-6.7,6.1c-5.3,1.8-10.7,3.2-16.1,4.3c-5.4-1.1-10.8-2.5-16.1-4.3c-3.3-1.1-5.3-3.1-6.7-6.1
	c-0.4-0.8-0.6-1.6-1-2.3c-1-1.8,0.5-3.1,0.9-4.6c0.4-1.2,1.5-0.9,2.3-1.1c5.7-1.2,7.6-5,7-10c-0.3-2.6-1.3-3.1-3.8-2.4
	c-2.1,0.6-3.8,1.8-5.2,3.7c-0.1-1.1-0.2-1.9-0.3-2.7c-0.4-2.3-1-4.5-2.4-6.3c-1-1.4-2-1.4-3,0c-1.9,2.6-2.6,5.5-2.1,8.7
	c0.1,0.5,0.3,1.1,0,1.9c-2.1-2.3-4.9-2.8-7.8-3.3c1.4-0.6,2.8-1.1,3.5-2.4c1.3-2.1,1.7-4.5,1.6-7c-0.1-1.7-1-2.2-2.6-1.5
	c-1.4,0.6-2.6,1.4-3.9,2.7c0-1.6,0-3,0-4.3c0-1.3-0.3-2.6-1.2-3.6c-0.8-1-1.3-1-2.4-0.5c-2.7,1.4-4,4-3.5,7.2c0.3,2,0.9,3.9,2,5.6
	c0.4,0.7,0.5,1.3-0.1,1.9c-1.8-1.8-1.7-1.8-1.8-4.3c0-0.6-0.1-1.1-0.2-1.7c-0.6-3.4-3-5.6-6.3-5.9c-1.5-0.1-2,0.2-1.8,1.8
	c0.2,2.3,0.9,4.5,2.1,6.4c0.7,1.1,1.6,2.1,2.9,2.3c2.1,0.4,3.3,1.8,4.5,3.3c0.6,0.7,0.9,1.4,0.9,2.3c0.1,2.5,0.5,5,1.3,7.3
	c0.1,0.4,0.5,0.7-0.1,1.2c-1.9-1.4-3.9-2.8-5.9-4.1c-2.5-1.6-3.8-3.9-4.4-6.8c-0.8-3.9-1.8-7.8-2.6-11.7c-0.4-2.2-0.4-4.4,0.6-6.4
	c0.3-0.7,0.7-1.1,1.6-1.2c1.7-0.1,3.1-1.1,4.2-2.4c2.4-2.7,3.2-8.6,1.6-11.8c-0.3-0.7-0.9-0.9-1.6-0.9c-1.4,0-2.8,0.3-4.2,0.8
	c-2,0.7-3.5,1.8-4,4c-0.1,0.3-0.2,0.5-0.6,0.5c-0.7-1.3-1.6-2.5-2.7-3.5c-1.3-1.1-2.1-1-2.8,0.6c-0.3,0.7-0.4,1.5-0.7,2.2
	c-0.5,1.6-0.2,3.4-0.5,5.1c-3.3-1.1-6.6-2.1-10.1-1c-0.1-1-0.1-1.9-0.1-2.7c-0.4-6.2-3.1-10.5-9.3-12.4c-0.7-0.2-1.5-0.5-2.2-0.7
	c-2.2-0.6-3.1,0.1-3,2.4c0.2,3,1.1,5.9,2.3,8.6c2.1,4.4,5.3,7.7,10.1,9.3c0.4,0.1,0.8,0.3,1.1,0.6c1.2,1.8,2.5,3.6,3.8,5.6
	c-1.7,0.2-2.9-0.2-4.2-0.6c-0.6-0.2-0.7-0.6-0.9-1.1c-1.2-2.5-3.2-4.4-5.4-6c-4.8-3.3-9.9-1.8-13.8,1.3c-1.2,0.9-1.1,1.8,0,2.9
	c0.9,0.9,1.9,1.7,2.9,2.5c4.2,3.7,8.9,4.3,13.9,2.3c0.9-0.3,1.6-0.3,2.4,0.1c1.6,0.7,3.3,1.1,5,0.9c1.3-0.1,2.1,0.4,2.8,1.4
	c3.5,4.9,7.6,9.3,12,13.4c0.4,0.4,1.1,0.7,1.2,1.5c-0.8-0.2-1.6-0.5-2.3-0.7c-1.7-0.5-3.4-1.4-5.1-1.3c-3.4,0.1-6.2-1.2-9-2.9
	c-1.1-0.7-1.7-1.5-1.9-3c-0.6-4.2-2.9-7-7.3-6.7c-1.7,0.1-3.4,0.2-5.1,0.5c-0.8,0.2-1.5,0.4-2.2,0.7c-1.2,0.6-1.4,1.3-0.7,2.4
	c0.4,0.6,0.8,1.2,1.2,1.7c2.1,2.5,4.5,4.5,8.1,5.7c-1,0.1-1.6,0.1-2.1,0.2c-2.7,0.4-5,1.6-6.8,3.7c-1.5,1.7-1.4,2.5,0.5,3.7
	c3.1,1.9,6.3,2.7,10.2,1.2c-0.4,0.5-0.6,0.7-0.8,1c-2.4,2.8-2.5,6.1-2,9.5c0.3,1.8,1.3,2.3,3.1,2c2.8-0.5,4.7-2.2,6.2-4.5
	c1.4-2.3,1.9-4.7,1.8-7.4c0-0.7-0.1-1.4,0.6-1.9c1.3-1.1,2.7-2.1,4.1-3c0.4-0.2,0.8-0.3,1.2-0.2c6.1,1.2,12.2,2.4,17.4,6.2
	c1.2,0.9,2.5,1.7,3.8,2.4c1.6,1,3.3,1.9,5.3,3.1c-3,0.5-5.6,1-8.2,1.8c-1.5,0.5-3-0.4-4.5-1c-1.1-0.5-0.7-1.6-1.1-2.4
	c-0.1-0.3-0.2-0.5-0.3-0.8c-1.5-4.3-6-7.4-10.6-7.1c-1.8,0.1-2.2,0.6-1.7,2.3c0.5,1.6,1,3.1,2,4.5c2,3,4.8,4.8,8.4,4.7
	c1.8-0.1,3,0.6,4.5,1.4c-1,0.7-1.7,1-2.9,0.8c-2.7-0.5-5.2,0.2-7.4,1.9c-1.1,0.8-1.7,1.9-2.1,3.1c-0.4,1.2,0,1.7,1.2,2
	c2.8,0.8,5.6,1.6,8.4,0c0.4,0.6,0.2,1.1,0.3,1.6c0.6,4.1,2.6,7,6.5,8.5c1.4,0.5,2,0.3,2.6-0.9c1.7-3.3,1.3-6.6-0.6-9.7c0,0,0,0,0,0
	c0.5-0.4,0.9-0.1,1.3,0.2c0.8,0.6,1.6,1.2,2.5,1.7c3.3,1.9,6.7,2.5,10.2,0.6c0.9-0.5,1.7-0.2,3.1,0c-1.4,0.6-2,1.5-3.3,1.5
	c-4.4-0.3-7,2.2-8.8,5.9c-0.6,1.2-1.1,2.5-1.2,3.9c-0.1,0.9,0.2,1.7,1.3,1.8c3.9,0.4,7.6,0.2,10.2-3.4c0-0.1,0.2,0,0.4,0
	c0,0.8,0,1.6,0,2.4c0.1,2.3,0.9,4.3,2,6.3c0.8,1.5,1.6,1.5,2.8,0.3c1.2-1.2,2.4-2.4,3.2-4c1.9-3.6,2.4-7.2-0.3-10.6
	c-0.5-0.6-0.5-1.1-0.2-1.8c0.3-0.6,0.5-1.2,0.6-1.8c0.2-0.9,0.8-1.3,1.7-1.4c2.5-0.2,5-0.4,7.4,0.5c1.2,0.4,2.4,0.8,3.6,1.3
	c-0.6,0.1-1.3,0.2-1.9,0.2c-1.2,0.1-2.4,0.4-3.5,0.8c-0.7,0.2-1.3,0.6-1.8,1.1c-0.7,0.7-1,1.6-0.6,2.5c0.4,1,1.2,1.4,2.2,1.4
	c0.7,0,1.4-0.2,2.1-0.4c3.8-1.1,7.5-2.1,11.3-3.2c3.8,1.1,7.5,2.2,11.3,3.2c0.7,0.2,1.4,0.4,2.1,0.4c1,0,1.8-0.4,2.2-1.4
	c0.4-1,0.1-1.8-0.6-2.5c-0.5-0.5-1.1-0.9-1.8-1.1c-1.1-0.4-2.3-0.7-3.5-0.8c-0.6-0.1-1.3-0.2-1.9-0.2c1.2-0.4,2.4-0.8,3.6-1.3
	c2.4-0.9,4.9-0.7,7.4-0.5c0.9,0.1,1.5,0.5,1.7,1.4c0.2,0.6,0.4,1.2,0.6,1.8c0.3,0.7,0.2,1.2-0.2,1.8c-2.7,3.5-2.2,7-0.3,10.6
	c0.8,1.5,2,2.8,3.2,4c1.2,1.2,2,1.2,2.8-0.3c1.1-1.9,1.9-4,2-6.3c0-0.8,0-1.6,0-2.4c0.1,0,0.3-0.1,0.4,0c2.6,3.6,6.3,3.8,10.2,3.4
	c1.1-0.1,1.4-0.9,1.3-1.8c-0.1-1.4-0.6-2.6-1.2-3.9c-1.8-3.7-4.4-6.2-8.8-5.9c-1.2,0.1-1.8-0.9-3.3-1.5c1.4-0.3,2.2-0.5,3.1,0
	c3.5,1.9,6.9,1.2,10.2-0.6c0.9-0.5,1.7-1.1,2.5-1.7c0.4-0.3,0.8-0.6,1.3-0.2c0,0,0,0,0,0c-1.8,3.1-2.2,6.4-0.6,9.7
	c0.6,1.3,1.2,1.5,2.6,0.9c3.9-1.5,5.9-4.5,6.5-8.5c0.1-0.5-0.1-1,0.3-1.6c2.8,1.7,5.6,0.8,8.4,0c1.2-0.3,1.5-0.9,1.2-2
	c-0.4-1.3-1-2.3-2.1-3.1c-2.2-1.7-4.7-2.4-7.4-1.9c-1.1,0.2-1.9,0-2.9-0.8c1.5-0.8,2.7-1.5,4.5-1.4c3.6,0.1,6.4-1.7,8.4-4.7
	c0.9-1.4,1.5-2.9,2-4.5c0.5-1.7,0.1-2.2-1.7-2.3c-4.6-0.3-9.1,2.8-10.6,7.1c-0.1,0.3-0.1,0.6-0.3,0.8c-0.4,0.8,0.1,1.9-1.1,2.4
	c-1.4,0.6-3,1.5-4.5,1c-2.6-0.8-5.2-1.3-8.2-1.8c2-1.2,3.7-2.1,5.3-3.1c1.3-0.8,2.6-1.6,3.8-2.4c5.2-3.7,11.3-5,17.4-6.2
	c0.4-0.1,0.8,0,1.2,0.2c1.4,0.9,2.8,1.9,4.1,3c0.7,0.5,0.6,1.2,0.6,1.9c-0.2,2.6,0.4,5.1,1.8,7.4c1.4,2.3,3.4,4,6.2,4.5
	c1.8,0.3,2.8-0.1,3.1-2c0.5-3.4,0.4-6.7-2-9.5c-0.2-0.2-0.3-0.4-0.8-1c3.8,1.5,7.1,0.7,10.2-1.2c1.9-1.2,2-2,0.5-3.7
	c-1.8-2.1-4.1-3.3-6.8-3.7c-0.5-0.1-1.1-0.1-2.1-0.2c3.6-1.1,6-3.2,8.1-5.7c0.5-0.5,0.9-1.1,1.2-1.7c0.7-1.1,0.5-1.8-0.7-2.4
	c-0.7-0.3-1.5-0.5-2.2-0.7c-1.7-0.4-3.4-0.4-5.1-0.5c-4.4-0.2-6.7,2.6-7.3,6.7c-0.2,1.5-0.8,2.3-1.9,3c-2.8,1.7-5.5,3-9,2.9
	c-1.7-0.1-3.4,0.9-5.1,1.3c-0.7,0.2-1.5,0.4-2.3,0.7c0.2-0.8,0.8-1.1,1.2-1.5c4.4-4.1,8.5-8.5,12-13.4c0.7-1,1.5-1.5,2.8-1.4
	c1.7,0.2,3.4-0.2,5-0.9c0.8-0.4,1.5-0.4,2.4-0.1c5.1,2,9.8,1.3,13.9-2.3c1-0.8,2-1.7,2.9-2.5C324.2,299.2,324.3,298.3,323.1,297.4z
	 M147.5,318.7c1.9-1.1,3.6-0.6,5.1,1.1C150.7,320.3,148.9,320.4,147.5,318.7z M152.8,325.4c-1.2,0.4-2.8,0.1-4.5,0.9
	c1.1-1.4,2.1-2.3,2.6-3.6c0.2-0.5,0.8-0.5,1.3-0.5c1.3,0,2.7,0,4.4,0.3C155.1,323.7,154.1,325,152.8,325.4z M169.2,319.2
	c-7.2-6.5-13.6-13.7-18.5-22.2c-0.5-0.8-1-1.6-0.2-2.8c1.3,2,2.6,3.9,4.1,5.6c2.3,2.6,5.1,3.8,8.6,2.9c1.6-0.4,3.3,0.9,3.7,2.9
	c0.6,3,1.1,6,1.7,9c0.3,1.5,0.7,3,1,4.5C169.4,319.2,169.2,319.3,169.2,319.2z M175,342.3c-0.1-1.3-0.1-2.3,1.7-2.5
	C176.7,341.1,176.4,342,175,342.3z M201.5,324.3c-0.1,2.3,1,4.2-0.7,6.2c-0.8-1.3-0.9-2.6-1.1-3.8
	C199.4,325.6,200.7,325.4,201.5,324.3z M197.7,326.2c0.6,0.6,0.5,1.2,0.6,2.2C197.3,327.5,197.6,326.9,197.7,326.2z M183,320.9
	c0-1.3,0-2.5,0-3.8c-0.1-1.8,0.1-3.4,2.2-4.1c0,1.8-0.3,3.5-0.2,5.3c0.1,1-0.9,1.8-1.4,2.7C183.4,321,183.2,321,183,320.9z
	 M186.8,332.1c-0.9-0.5-1.6-1.2-1.8-2.2c-0.1-0.3-0.1-0.6-0.3-0.8c-1.3-3-0.9-5.6,1.6-8.1c0.5,1,0.9,2,1.3,2.8
	c1.7,3.1,4.2,5,7.9,4.9c0.8,0,1.3,0.3,1.8,0.8c1.2,1.2,2.2,2.4,2.6,4.1c0.6,2.2,1.7,4.2,2.8,6.2c-0.7,0.3-1.2-0.1-1.7-0.4
	C196.1,337.3,191.4,334.8,186.8,332.1z M201,351.9c-1.4,0.6-2.1,2-3.3,3c0.1-1.3,0.2-2.7,0.3-4c0-0.6,0.2-0.9,0.7-1.2
	c1.5-0.9,3.1-1.7,5.1-2.2C203.2,349.4,202.9,351.1,201,351.9z M198.5,346.4c-1.2-0.2-2.1-0.5-2.8-1.5c-1.4-2-3.4-3.3-5.8-3.5
	c-2.6-0.3-4.9,0.6-7.1,1.8c-0.9,0.5-0.7,1.5-1.2,2.2c-0.1-1.4-1.2-2-2-2.8c-0.5-0.5-1.5-0.6-1.1-1.7c0.4-1.1,0.5-2.3,1.9-2.6
	c1.4-0.3,2.8-0.6,4.2-0.9c0.1,0,0.1,0,0.2,0c3.8-0.9,7.3-0.3,10.8,1.7c3.5,2,7.3,3.5,11,5.1c0.2,0.1,0.5,0.3,0.7,0.6
	C204.2,345.1,201.6,346.8,198.5,346.4z M276.6,342.3c-1.3-0.3-1.6-1.2-1.7-2.5C276.7,340,276.7,341,276.6,342.3z M254,326.2
	c0.1,0.8,0.3,1.3-0.6,2.2C253.5,327.4,253.3,326.8,254,326.2z M250.2,324.3c0.8,1.1,2.1,1.3,1.9,2.4c-0.2,1.2-0.4,2.5-1.1,3.8
	C249.2,328.6,250.2,326.7,250.2,324.3z M253.7,350.9c0,1.3,0.2,2.7,0.3,4c-1.1-1-1.9-2.4-3.3-3c-1.9-0.8-2.2-2.5-2.8-4.4
	c2,0.5,3.6,1.3,5.1,2.2C253.5,350,253.6,350.4,253.7,350.9z M267,337.3c0.1,0,0.1,0,0.2,0c1.4,0.3,2.8,0.6,4.2,0.9
	c1.4,0.3,1.5,1.5,1.9,2.6c0.4,1.1-0.6,1.2-1.1,1.7c-0.9,0.8-2,1.4-2,2.8c-0.5-0.7-0.3-1.7-1.2-2.2c-2.2-1.2-4.5-2.1-7.1-1.8
	c-2.5,0.3-4.4,1.6-5.8,3.5c-0.8,1-1.6,1.4-2.8,1.5c-3.1,0.4-5.8-1.3-8.7-1.6c0.3-0.3,0.5-0.5,0.7-0.6c3.7-1.7,7.5-3.1,11-5.1
	C259.7,336.9,263.2,336.4,267,337.3z M267,329c-0.1,0.3-0.2,0.5-0.3,0.8c-0.3,1-0.9,1.7-1.8,2.2c-4.6,2.7-9.3,5.2-14.2,7.3
	c-0.5,0.2-0.9,0.7-1.7,0.4c1.1-2,2.2-4,2.8-6.2c0.5-1.7,1.5-2.9,2.6-4.1c0.5-0.5,1-0.8,1.8-0.8c3.6,0,6.2-1.8,7.9-4.9
	c0.5-0.9,0.8-1.8,1.3-2.8C267.9,323.4,268.3,326.1,267,329z M268.7,317.1c0,1.3,0,2.5,0,3.8c-0.2,0-0.4,0.1-0.6,0.1
	c-0.5-0.9-1.5-1.7-1.4-2.7c0.2-1.8-0.2-3.6-0.2-5.3C268.6,313.8,268.7,315.4,268.7,317.1z M304.1,318.7c-1.4,1.8-3.1,1.7-5.1,1.1
	C300.5,318.1,302.2,317.6,304.1,318.7z M299.5,322.2c0.5,0,1,0,1.3,0.5c0.6,1.2,1.5,2.2,2.6,3.6c-1.8-0.7-3.3-0.4-4.5-0.9
	c-1.3-0.4-2.3-1.8-3.8-3C296.8,322.2,298.1,322.1,299.5,322.2z M282.5,319.2c-0.1,0.1-0.2,0-0.4-0.1c0.3-1.5,0.7-3,1-4.5
	c0.6-3,1.1-6,1.7-9c0.4-2,2.1-3.3,3.7-2.9c3.5,0.9,6.3-0.3,8.6-2.9c1.5-1.7,2.8-3.6,4.1-5.6c0.8,1.2,0.2,2-0.2,2.8
	C296.1,305.5,289.7,312.7,282.5,319.2z"/>
<path class="st4" d="M312.3,186.8c0.7-1.7,1.4-3.3,2.1-4.9c3.2-7.9,8.3-14.4,14.8-19.8c7-5.8,14.6-10.7,22.3-15.5
	c0.4-0.2,0.7-0.4,1.1-0.7c1.3-0.9,1.3-0.9,0.6-2.3c-2.8-5.6-1.5-12.4,5.8-16.1c2.8-1.4,5.9-1.3,8.8-0.8c3.7,0.7,6.2,4.1,6.6,8.3
	c0.3,3-0.2,5.8-1.5,8.5c-2.8,5.6-8.8,7.8-14.5,5.2c-1.3-0.6-2.1-0.5-3.3,0.2c-6.4,4.1-12.9,8.1-19,12.7c-0.6,0.5-1.2,1-1.9,1.5
	c0.6,0.4,1.1,0.1,1.5,0.1c6.9-1,13.9-1.5,20.9-0.8c1.2,0.1,1.8-0.2,2.4-1.2c1.9-2.8,4.4-4.8,7.5-6.1c3.2-1.3,6-0.8,8.4,1.6
	c1.1,1.1,2.2,2,3.2,3.1c1.8,1.8,2.8,4,2.7,6.5c0,4.4-1.3,8.3-4.6,11.3c-4.9,4.4-12.4,4.2-17-0.4c-1.7-1.7-2.4-3.8-2.7-6.1
	c-0.2-1.8,0.1-3.5,0.2-5.3c-0.7-0.4-1.5-0.3-2.2-0.4c-7.9-0.5-15.7,0.2-23.5,1.1c-1.1,0.1-2,0.6-2.8,1.3
	c-5.5,4.9-9.3,10.9-12.1,17.7c-2.4,5.7-3.7,11.8-5,17.9c-0.1,0.6-0.2,1.3-0.3,1.9c-0.8,14.6-4.1,28.6-9.2,42.3
	c-1.7,4.6-3.8,8.9-7.1,12.6c-0.8,0.8-1.6,1.7-2.5,2.4c-1.1,0.8-2,0.9-2.7,0.3c-0.7-0.6-0.8-1.5-0.1-2.7c0.2-0.4,0.4-0.7,0.7-1.1
	c5-7.7,8.2-16.1,10.8-24.8c2.3-7.8,4-15.7,4.9-23.8c0.6-5.1,0.6-10.2,0-15.4c-0.8-6.7-3.1-12.7-7.2-18.1c-4.7-6.2-10.1-11.6-16-16.6
	c-1-0.8-1.8-2.2-3-2.2c-1.1,0-1.7,1.6-2.5,2.4c-1.5,1.4-2.9,2.9-4.7,4c-5.8,3.6-12.5,1.2-14.7-5.3c-0.9-2.6-1-5.2-0.5-7.8
	c0.8-4.3,2.8-7.9,5.8-11c7.4-7.5,16.2-2.2,18.3,2.2c1.6,3.5,1.7,7,0.4,10.6c-0.6,1.7-0.6,1.7,0.8,2.7c6.2,4.7,12.1,9.7,17.2,15.7
	c2.8,3.3,5.3,6.7,7.2,10.6c0.1,0.2,0.2,0.5,0.5,0.6c0.4-0.3,0.2-0.8,0.1-1.2c-0.9-10-2.3-19.8-5.2-29.4c-1.6-5.2-3.7-10.2-6.3-14.9
	c-0.6-1.1-1.1-1.3-2.3-1c-4.3,1.1-8.3,0.5-12.1-1.9c-4.7-3-6.1-9.7-4.8-13.8c1.7-5.4,5.5-8.5,11-9.7c2.4-0.5,9.1,0.9,11.1,2.3
	c2.6,1.7,4.1,4.2,4.6,7.2c0.9,5,0,9.5-3.9,13.1c-0.6,0.6-0.9,1-0.4,1.8c6.1,10.2,8.3,21.6,10.3,33.1c0,0.3,0,0.6,0.3,0.8
	c0.6-0.2,0.4-0.8,0.5-1.2c1.6-6.5,3.7-12.9,6.9-18.8c3.3-6.1,7.7-11.3,12.7-16c1-1,2-2,3.1-2.9c0.8-0.7,0.7-1.2,0-1.9
	c-1.8-1.8-3-4-3.5-6.5c-1-4.5,0.3-8.4,3.7-11.4c3.2-2.9,7-3.9,11.3-2.4c1.6,0.5,2.9,1.5,3.9,2.8c1.1,1.5,2.2,3,3.2,4.5
	c0.1,0.2,0.2,0.4,0.3,0.6c2.3,4.6,0.8,8.8-1.9,12.6c-6.1,8.4-11.9,1.4-15.3,4.6c-4.1,3.9-8.1,8-11.4,12.7
	c-3.9,5.7-6.4,11.9-8.2,18.5c-2,7.1-2.8,14.4-3.3,21.7C311.9,186.1,311.9,186.5,312.3,186.8z M264.1,147.4c-0.2,0.3-0.4,0.6-0.5,0.9
	c-1.4,3-2.2,6.2-1.4,9.5c0.9,3.9,4.5,5.4,7.9,3.3c5.1-3.2,12.3-10.9,6.8-17.5c-2.5-3-4.9-3.9-8.1-1.8
	C266.7,143.3,265.3,145.3,264.1,147.4z M298.1,128.6c0.3-0.5,0.6-1,0.8-1.5c3.4-10.2-8-16.6-14.9-9.4c-3,3.1-3.7,8-1.5,11.4
	C288.7,138.4,298,128.7,298.1,128.6z M347.9,124.7c0.6-1.1,0.9-2.1,1.2-3.1c0.4-1.4,0.3-2.7-0.4-3.9c-0.9-1.5-1.9-3-3.1-4.3
	c-1-1.1-2.2-1.5-3.6-1.6c-2.2-0.1-4,0.7-5.5,2.3c-2.7,3-2.9,6.5-0.7,10.2c0.1,0.1,4,6.5,9,3.7C346.2,127.1,347.3,126,347.9,124.7z
	 M375.6,172.9c4.2-8-3.8-13.4-5.6-12.6c-7.9,3.6-7.6,10.5-7.6,10.6c0,3.1,1.8,5.5,4.8,6.2C370.5,177.8,373.9,176.1,375.6,172.9z
	 M369.9,141.3c2.8-7.6-5.2-11.1-8.1-9.4C350.5,138.4,365.6,152.8,369.9,141.3z"/>
<path class="st5" d="M213,119.8c-1-1.1-1.7-1.3-3-0.5c-0.7,0.4-1,0.3-1.4-0.2c-0.2-0.3-0.6-0.6-0.9-0.9c-0.9-0.7-1.9-1.1-3-0.6
	c-1,0.5-1.5,1.5-1.5,2.7c0,0.8,0.1,1.5,0.2,2.6c-1.2-1.2-2.3-2.1-3.6-2.7c-2.8-1.2-5.3-0.3-6.6,2.4c-0.3,0.7-0.6,1.3-1.3,1.7
	c-0.6,0.3-1,0.9-1.2,1.5c-0.4,1.3-1.2,1.4-2.3,1c-1-0.3-2-0.3-3-0.2c-9,0.7-16,6.2-18.9,13.6c-1.5,3.7-1.8,7.5-0.2,11.3
	c0.4,1.1,0.2,1.7-0.6,2.4c-2.1,1.8-4.1,3.7-6.2,5.6c-10.6,9.5-19.2,20.4-24.8,33.6c-0.1,0.3-0.1,0.7-0.7,0.6
	c-0.4-0.9-0.2-1.8-0.3-2.7c-0.6-14.1,0.7-28,4.8-41.6c3.3-11,8.6-21.1,13.3-31.5c0.3-0.6,0.6-0.9,1.3-0.8c1.8,0.3,3.4-0.3,5-1
	c3.5-1.6,6.7-3.7,9.4-6.6c3.3-3.6,6.2-7.5,8.7-11.6c1.6-2.5,2.8-5.1,3.5-8c0.3-1.2,0.8-1.9,2.1-2.3c2.7-0.8,3.8-3.6,2.8-6.2
	c-0.2-0.5-0.7-0.9-0.5-1.7c0.3,0.1,0.7,0.1,1,0.2c3.3,0.8,5.8-1.5,6.4-4.4c0.3-1.3,0.5-2.7,0.6-4c0.1-2.1-0.6-4.1-1.9-5.8
	c-0.7-1-1.5-1-2.2,0c-0.4,0.4-0.5,0.5-1,0.3c-1-0.5-2-0.2-3,0.2c-1,0.3-2.2-0.4-3.3,0.1c-0.3,0.1-0.6,0.2-0.8,0.4
	c-1,1.2-2.1,2.2-3.4,3.1c-0.3,2.3-1.8,2.2-3.5,2c-1.6-0.1-2.7,1.1-3.1,3c-0.5,2.5-1.6,4.2-4.2,5.2c-4.8,1.9-8.9,5.1-12.3,9
	c-3,3.4-5.1,7.2-6.4,11.5c-1.4,4.9-1.2,9.8,2,13.9c1.5,2,1.5,3.3,0.3,5.1c-0.2,0.2-0.3,0.5-0.4,0.8c-2.4,4.9-5,9.8-7.2,14.8
	c-8,18-11.3,36.8-11,56.4c0,0.8,0,1.6,0,2.4c-7.7-18.8-20.8-32.5-38.1-42.6c0-0.1,0.1-0.4,0.2-0.5c2.3-3.2,1.8-6.3-0.1-9.4
	c-2.8-4.4-6.4-7.8-11.2-10c-2.7-1.2-5.3-2.4-8.2-3.1c-1.5-0.4-2.3-1.3-2.7-2.7c-0.1-0.5-0.2-1-0.4-1.4c-1.8-6.2-8.3-8.9-14-5.8
	c-0.8,0.5-1.5,0.6-2.4,0.3c-0.7-0.2-1.4-0.3-2.1-0.1c-1.1,0.3-1.4,1.3-0.5,2.1c0.4,0.4,0.9,0.6,1.5,1c-0.4,1.1-1,2.2-0.6,3.3
	c0.9,2,1.8,4.1,4,5c1,0.4,1.6,0.9,1.9,2c0.3,0.9,0.6,1.9,0.7,2.9c0.5,3.6,2.7,5.6,6.3,5.9c1,0.1,1.3,0.4,1.7,1.2
	c1.3,3.4,3.2,6.3,5.5,9.1c3.6,4.4,8.4,6.2,14,5.8c1.7-0.1,3.3-0.7,4.4-1.9c0.9-1,1.6-0.7,2.6-0.2c5.3,2.9,9.9,6.7,14.3,10.7
	c14.1,13,21.9,29.3,24.8,48.1c0.6,4.1,1.2,8.2,2.2,12.2c2.4,10.8,5.9,21.3,10.3,31.5c1.8,4.2,3.9,8.3,6.4,12.1
	c0.6,0.9,1.2,1.8,2.1,2.4c0.6,0.4,1.2,0.4,1.8,0c0.6-0.5,0.6-1.1,0.1-1.7c-0.1-0.2-0.2-0.4-0.3-0.6c-2.8-5.5-5.5-11.1-7.8-16.9
	c-5.5-13.7-9.6-27.9-11.8-42.6c-1.1-7.6-1.1-9.3,2-16.3c3.2-7.2,7.5-13.7,12.4-19.9c5.3-6.7,11.5-12.6,18.1-18.1
	c0.9-0.8,1.6-1.4,2.9-0.8c0.5,0.3,1.3,0.2,1.9,0.2c3,0,5.8-0.7,8.5-1.7c6.4-2.5,11.4-6.6,15-12.5c0.6-0.9,1-1.6,2.3-1.5
	c1,0.1,1.9-0.3,2.9-0.8c2.5-1.3,4-3.4,4.6-6.1c0.2-1.1,0.9-1.7,1.5-2.4c0.8-0.9,1.6-0.8,2.6-0.6c1.7,0.4,2.9-0.4,3.7-1.9
	C215.2,125,214.7,121.6,213,119.8z M188.4,74.7c0,0,0.1,0,0.2,0c0.3,0.1,0.2,0.3,0.2,0.5c-0.1,0.3-0.2,0.6-0.6,0.8
	c0,0-0.2-0.2-0.2-0.3C188.2,75.3,188.3,75,188.4,74.7z M185,74.1c-0.5-1.8-1.6-3-2.6-4.6C184.6,70.4,185.5,71.9,185,74.1z
	 M150,108.7c-0.9-3.2-0.7-6.2,0.3-9.1c3.1-9.1,9.5-15,18.1-18.9c0.8-0.4,1.4-0.3,1.9,0.5c1.5,2.4,3.6,4.3,6.1,5.5
	c1,0.5,1.1,1.1,0.8,2.1c-2.5,7.3-6.1,14-11.5,19.6c-2.4,2.5-5.4,4.1-8.6,5.5c-0.5,0.2-1.1,0.4-1.6,0.5c-1.4,0.4-2.5,0-3.3-1.2
	C151.2,111.8,150.3,110.3,150,108.7z M59.2,126.5c-0.1-0.1-0.3-0.1-0.4-0.2c0.4-0.8,0.8-1.5,1.3-2.4
	C60.8,125.3,59.6,125.7,59.2,126.5z M63.9,123.5c-0.4,0.1-0.7-0.1-0.8-0.5c-0.5-1.1-1.3-2-2.6-2.9c3.6-0.5,5.8,0.7,7.3,3.7
	C66.4,123.5,65.1,123.3,63.9,123.5z M67.9,135.5c-0.1,0-0.3-0.3-0.2-0.5c0.1-0.9,0.8-0.9,1.5-1c0,0.2,0.1,0.3,0,0.3
	C68.9,134.9,68.6,135.4,67.9,135.5z M90.9,149.5c-0.4,0.5-0.9,1-1,1.6c-0.4,2-1.9,2.5-3.6,2.7c-3.7,0.4-7.3-0.3-10.1-2.9
	c-3.1-2.7-5.3-6.1-7-9.8c-0.3-0.6-0.6-1.3,0.2-1.9c2.8-2,4.4-4.7,4.3-8.5c7.2,2.1,13.6,5.2,17.6,11.9
	C92.7,145.1,92.9,147.3,90.9,149.5z M194.4,139.3c-0.5,1.1-1,2.1-1.7,3c-2.9,3.8-8.1,8.1-14.5,9.5c-2,0.6-4.4,0.8-6.8,0.6
	c-1-0.1-1.6-0.5-2.1-1.4c-1.5-2.8-1.8-5.7-0.9-8.7c2.3-7.6,8.9-13.5,18-13.5c0.8,0,1.6,0.2,2.3,0.4c0.9,0.3,1.5,0.8,1.8,1.9
	c0.5,2.4,1.7,4.6,3.6,6.2C194.8,137.9,194.7,138.5,194.4,139.3z M197.3,123.2c0.3-0.1,0.7-0.2,1,0.1c0.1,0.6-0.3,0.9-0.7,1.2
	c-0.3,0.2-0.5,0-0.7-0.3C196.6,123.7,196.9,123.4,197.3,123.2z M198.9,130.1c-1.1-0.4-1.4-1-2-2.2
	C198.2,128.4,198.3,129.2,198.9,130.1z M200.1,134.9c-1.3,0.2-2.3-0.2-3-1.6c1-0.5,1.9,0.1,2.9-0.1c1-0.2,1.8-0.8,3.1-1.2
	C202.5,133.7,201.6,134.6,200.1,134.9z"/>
</svg>
